<svg width="18" height="18" viewBox="0 0 18 18" fill="none" xmlns="http://www.w3.org/2000/svg">
<path d="M11.905 13C11.73 13.45 11.435 13.75 11.1 13.75H6.87C6.53 13.75 6.24 13.45 6.065 13H0.5V13.875C0.525591 14.1956 0.676273 14.4934 0.919506 14.7038C1.16274 14.9143 1.479 15.0207 1.8 15H16.2C16.521 15.0207 16.8373 14.9143 17.0805 14.7038C17.3237 14.4934 17.4744 14.1956 17.5 13.875V13H11.905Z" fill="black"/>
<path d="M3.49991 5H14.4999V12H15.9999V3.785C16.0039 3.58162 15.9273 3.38491 15.7868 3.23782C15.6463 3.09074 15.4533 3.00524 15.2499 3H2.74991C2.54655 3.00524 2.35354 3.09074 2.21301 3.23782C2.07249 3.38491 1.99588 3.58162 1.99991 3.785V12H3.49991V5Z" fill="black"/>
</svg>
