<svg width="9" height="14" viewBox="0 0 9 14" fill="none" xmlns="http://www.w3.org/2000/svg">
  <path d="M0.5 0C0.632608 0 0.759785 0.0526784 0.853553 0.146447C0.947322 0.240215 1 0.367392 1 0.5V3.5C0.999837 3.81033 1.09593 4.11306 1.27503 4.36649C1.45413 4.61992 1.70742 4.81156 2 4.915V0.5C2 0.367392 2.05268 0.240215 2.14645 0.146447C2.24021 0.0526784 2.36739 0 2.5 0C2.63261 0 2.75979 0.0526784 2.85355 0.146447C2.94732 0.240215 3 0.367392 3 0.5V4.915C3.29258 4.81156 3.54587 4.61992 3.72497 4.36649C3.90407 4.11306 4.00016 3.81033 4 3.5V0.5C4 0.367392 4.05268 0.240215 4.14645 0.146447C4.24021 0.0526784 4.36739 0 4.5 0C4.63261 0 4.75979 0.0526784 4.85355 0.146447C4.94732 0.240215 5 0.367392 5 0.5V3.5C5.00012 4.07633 4.80111 4.63499 4.43665 5.08145C4.0722 5.52791 3.56468 5.83473 3 5.95V13.5C3 13.6326 2.94732 13.7598 2.85355 13.8536C2.75979 13.9473 2.63261 14 2.5 14C2.36739 14 2.24021 13.9473 2.14645 13.8536C2.05268 13.7598 2 13.6326 2 13.5V5.95C1.43532 5.83473 0.927802 5.52791 0.563347 5.08145C0.198892 4.63499 -0.000117575 4.07633 5.21142e-08 3.5V0.5C5.21142e-08 0.367392 0.0526786 0.240215 0.146447 0.146447C0.240215 0.0526784 0.367392 0 0.5 0ZM7.479 1.479C7.638 1.319 7.817 1.196 8 1.115V6H7V2.5C7 2.163 7.174 1.783 7.479 1.479ZM8 7V13.5C8 13.6326 8.05268 13.7598 8.14645 13.8536C8.24021 13.9473 8.36739 14 8.5 14C8.63261 14 8.75979 13.9473 8.85355 13.8536C8.94732 13.7598 9 13.6326 9 13.5V0.5C9 0.367392 8.94732 0.240215 8.85355 0.146447C8.75979 0.0526784 8.63261 0 8.5 0C7.837 0 7.217 0.326 6.771 0.771C6.326 1.217 6 1.837 6 2.5V6.5C6 6.63261 6.05268 6.75979 6.14645 6.85355C6.24021 6.94732 6.36739 7 6.5 7H8Z" fill="black"/>
</svg>
