<svg width="12" height="16" viewBox="0 0 12 16" fill="none" xmlns="http://www.w3.org/2000/svg">
  <path d="M6.41598 0.222994C6.37032 0.154515 6.30846 0.0983671 6.23589 0.0595335C6.16332 0.0206999 6.08229 0.00038147 5.99998 0.00038147C5.91768 0.00038147 5.83664 0.0206999 5.76407 0.0595335C5.69151 0.0983671 5.62964 0.154515 5.58398 0.222994L2.58398 4.72299C2.53388 4.79829 2.50513 4.88576 2.50081 4.9761C2.49649 5.06644 2.51675 5.15626 2.55944 5.23599C2.60213 5.31573 2.66565 5.38239 2.74323 5.42888C2.82081 5.47537 2.90954 5.49995 2.99998 5.49999H3.09798L1.07598 8.73499C1.02868 8.81068 1.0025 8.89765 1.00015 8.98687C0.997812 9.07609 1.01939 9.16431 1.06266 9.24238C1.10593 9.32044 1.1693 9.3855 1.2462 9.4308C1.32311 9.4761 1.41073 9.49999 1.49998 9.49999H1.69098L0.0529834 12.776C0.014785 12.8522 -0.00328506 12.937 0.000490512 13.0221C0.00426609 13.1073 0.0297619 13.1901 0.0745548 13.2627C0.119348 13.3352 0.18195 13.3951 0.256411 13.4366C0.330872 13.4782 0.414719 13.5 0.499983 13.5H4.99998V16H6.99998V13.5H11.5C11.5852 13.5 11.6691 13.4782 11.7436 13.4366C11.818 13.3951 11.8806 13.3352 11.9254 13.2627C11.9702 13.1901 11.9957 13.1073 11.9995 13.0221C12.0033 12.937 11.9852 12.8522 11.947 12.776L10.31 9.49999H10.501C10.5902 9.49999 10.6779 9.4761 10.7548 9.4308C10.8317 9.3855 10.895 9.32044 10.9383 9.24238C10.9816 9.16431 11.0032 9.07609 11.0008 8.98687C10.9985 8.89765 10.9723 8.81068 10.925 8.73499L8.90198 5.49999H8.99998C9.09043 5.49995 9.17916 5.47537 9.25674 5.42888C9.33432 5.38239 9.39784 5.31573 9.44052 5.23599C9.48321 5.15626 9.50348 5.06644 9.49915 4.9761C9.49483 4.88576 9.46609 4.79829 9.41598 4.72299L6.41598 0.222994V0.222994ZM4.43698 4.75799C4.39379 4.67991 4.33049 4.6148 4.25365 4.56943C4.1768 4.52406 4.08922 4.50009 3.99998 4.49999H3.93398L5.99998 1.40099L8.06598 4.49999H7.99998C7.91073 4.49999 7.82311 4.52388 7.7462 4.56918C7.6693 4.61449 7.60593 4.67955 7.56266 4.75761C7.51939 4.83567 7.49781 4.9239 7.50015 5.01312C7.5025 5.10234 7.52868 5.18931 7.57598 5.26499L9.59798 8.49999H9.49998C9.41472 8.5 9.33087 8.5218 9.25641 8.56334C9.18195 8.60488 9.11935 8.66477 9.07456 8.73732C9.02976 8.80987 9.00427 8.89267 9.00049 8.97785C8.99672 9.06303 9.01479 9.14776 9.05298 9.22399L10.69 12.5H1.30898L2.94698 9.22399C2.98518 9.14776 3.00325 9.06303 2.99948 8.97785C2.9957 8.89267 2.9702 8.80987 2.92541 8.73732C2.88062 8.66477 2.81802 8.60488 2.74356 8.56334C2.66909 8.5218 2.58525 8.5 2.49998 8.49999H2.40198L4.42398 5.26499C4.47116 5.18932 4.49725 5.10241 4.49954 5.01326C4.50182 4.92412 4.48022 4.83598 4.43698 4.75799V4.75799Z" fill="black"/>
</svg>
