<svg width="15" height="15" viewBox="0 0 15 15" fill="none" xmlns="http://www.w3.org/2000/svg">
  <path fill-rule="evenodd" clip-rule="evenodd" d="M9.64591 0.645994C9.69235 0.59943 9.74753 0.562487 9.80827 0.537281C9.86902 0.512075 9.93414 0.4991 9.99991 0.4991C10.0657 0.4991 10.1308 0.512075 10.1915 0.537281C10.2523 0.562487 10.3075 0.59943 10.3539 0.645994L14.3539 4.64599C14.4005 4.69244 14.4374 4.74761 14.4626 4.80836C14.4878 4.8691 14.5008 4.93423 14.5008 4.99999C14.5008 5.06576 14.4878 5.13088 14.4626 5.19163C14.4374 5.25237 14.4005 5.30755 14.3539 5.35399L12.4519 7.25599L11.6229 10.569C11.5599 10.8213 11.4323 11.0528 11.2528 11.2409C11.0733 11.429 10.848 11.5672 10.5989 11.642L0.253906 14.746L3.35791 4.39999C3.43272 4.15125 3.57085 3.9262 3.75877 3.74688C3.94668 3.56755 4.17794 3.4401 4.42991 3.37699L7.74291 2.54899L9.64591 0.645994ZM7.84591 3.55399L4.67291 4.34699C4.58868 4.36802 4.51138 4.41061 4.4486 4.47057C4.38583 4.53054 4.33975 4.60581 4.31491 4.68899L1.74491 13.254L10.3119 10.684C10.3946 10.6589 10.4694 10.6129 10.529 10.5503C10.5886 10.4877 10.6309 10.4108 10.6519 10.327L11.4459 7.15299L7.84591 3.55299V3.55399Z" fill="black"/>
  <path fill-rule="evenodd" clip-rule="evenodd" d="M1.83185 13.228L6.99985 9C7.19763 9 7.39097 8.94135 7.55542 8.83147C7.71987 8.72159 7.84804 8.56541 7.92373 8.38268C7.99942 8.19996 8.01922 7.99889 7.98063 7.80491C7.94205 7.61093 7.84681 7.43275 7.70696 7.29289C7.5671 7.15304 7.38892 7.0578 7.19494 7.01922C7.00096 6.98063 6.79989 7.00043 6.61717 7.07612C6.43444 7.15181 6.27826 7.27998 6.16838 7.44443C6.0585 7.60888 5.99985 7.80222 5.99985 8L1.77185 13.168L1.74585 13.254L1.83185 13.228V13.228Z" fill="black"/>
</svg>
